<?xml version="1.0" encoding="UTF-8" standalone="no"?>
<svg
   xmlns:dc="http://purl.org/dc/elements/1.1/"
   xmlns:cc="http://creativecommons.org/ns#"
   xmlns:rdf="http://www.w3.org/1999/02/22-rdf-syntax-ns#"
   xmlns="http://www.w3.org/2000/svg"
   xmlns:xlink="http://www.w3.org/1999/xlink"
   id="svg4260"
   xml:space="preserve"
   style="enable-background:new 0 0 64 64;"
   viewBox="0 0 64 64"
   y="0px"
   x="0px"
   version="1.1"><metadata
     id="metadata4286"><rdf:RDF><cc:Work
         rdf:about=""><dc:format>image/svg+xml</dc:format><dc:type
           rdf:resource="http://purl.org/dc/dcmitype/StillImage" /><dc:title></dc:title></cc:Work></rdf:RDF></metadata><defs
     id="defs4284" /><style
     id="style4262"
     type="text/css">
	.st0{fill:#78a300;}
	.st1{opacity:0.2;}
	.st2{fill:#231F20;}
	.st3{fill:#FFFFFF;}
</style><circle
     style="fill:#3771c8"
     id="circle4267"
     r="32"
     cy="32"
     cx="32"
     class="st0" /><g
     class="st1"
     id="g4269"
     style="opacity:0.2"><g
       id="g4271"><path
         class="st2"
         d="m 47,18 -4,0 c -0.2,0 -0.5,0.1 -0.7,0.2 L 28.5,30.4 C 27.8,30.2 26.7,30 26,30 c -5.5,0 -10,4.5 -10,10 0,5.5 4.5,10 10,10 5.5,0 10,-4.5 10,-10 0,-1.6 -0.3,-2.7 -0.7,-3.6 l 3.4,-1.2 c 0.4,-0.1 0.7,-0.5 0.7,-1 l -0.1,-3.8 3.8,-0.3 c 0.5,0 0.9,-0.5 0.9,-1 l 0.1,-4.6 3,-0.7 c 0.5,-0.1 0.8,-0.5 0.8,-1 l 0,-4 C 48,18.4 47.6,18 47,18 Z M 23,40 c 1.2,0 2.2,0.7 2.7,1.7 0.2,0.4 0.3,0.8 0.3,1.3 0,1.7 -1.3,3 -3,3 -1.7,0 -3,-1.3 -3,-3 0,-1.7 1.3,-3 3,-3 z"
         id="path4273"
         style="fill:#231f20" /></g></g><g
     id="g4275"><g
       id="g4277"><path
         class="st3"
         d="m 47,16 -4,0 c -0.2,0 -0.5,0.1 -0.7,0.2 L 28.5,28.4 C 27.8,28.2 26.7,28 26,28 c -5.5,0 -10,4.5 -10,10 0,5.5 4.5,10 10,10 5.5,0 10,-4.5 10,-10 0,-1.6 -0.3,-2.7 -0.7,-3.6 l 3.4,-1.2 c 0.4,-0.1 0.7,-0.5 0.7,-1 l -0.1,-3.8 3.8,-0.3 c 0.5,0 0.9,-0.5 0.9,-1 l 0.1,-4.6 3,-0.7 c 0.5,-0.1 0.8,-0.5 0.8,-1 l 0,-4 C 48,16.4 47.6,16 47,16 Z M 23,38 c 1.2,0 2.2,0.7 2.7,1.7 0.2,0.4 0.3,0.8 0.3,1.3 0,1.7 -1.3,3 -3,3 -1.7,0 -3,-1.3 -3,-3 0,-1.7 1.3,-3 3,-3 z"
         id="path4279"
         style="fill:#ffffff" /></g></g><g
     id="Layer_2" /><path
     style="stroke:none;stroke-opacity:1;fill:#808080;fill-opacity:1"
     id="left-bracket"
     d="m -0.1355926,33.563886 0,-3.398957 4.0169491,0 c 4.0169491,0 4.0169491,0 4.0169491,-3.398957 l 0,-8.109912 c 0,-1.747064 0.096407,-3.045465 0.2932373,-3.881608 0.2169152,-0.856538 0.5583559,-1.573718 1.0323559,-2.15154 0.8194572,-0.948309 1.9000172,-1.614505 3.2456952,-1.984991 1.345678,-0.39088 3.502779,-0.8667342 7.371101,-0.8667342 l 4.125407,0 0,3.3989572 -3.020746,0 c -1.835745,0 -3.093051,0.649201 -3.759864,1.386774 -0.670831,0.730776 -1.253288,1.512536 -1.253288,3.630086 l 0,6.311863 c 0,2.47784 -0.164695,4.01077 -0.980136,5.074643 -0.80339,1.04348 -2.257525,1.798049 -4.378474,2.267105 2.149067,0.526838 3.615254,1.308598 4.402576,2.338482 0.799373,1.029884 0.956034,2.57301 0.956034,5.044052 l 0,6.328858 c 0,2.103955 0.582457,2.882316 1.253288,3.609692 0.666813,0.747771 1.924119,1.383376 3.759864,1.383376 l 3.020746,0.0136 0,0 0,3.398957 -4.125407,0 c -3.868322,0 -6.025423,-0.452061 -7.371101,-0.842942 C 11.123916,52.7442 10.043356,52.071207 9.2238988,51.105903 8.7498988,50.545075 8.4084581,49.834693 8.1915429,48.981555 7.9947124,48.121619 7.8983056,46.819818 7.8983056,45.076153 l 0,-8.11331 c 0,-3.398957 0,-3.398957 -4.0169491,-3.398957 l -4.0169491,0 z" /><use
     style="stroke:none;stroke-opacity:1;fill:#000080;fill-opacity:1"
     transform="matrix(-1,0,0,1,64,0)"
     id="right-bracket"
     x="0"
     y="0"
     width="24"
     height="24"
     xlink:href="#left-bracket" /></svg>